<svg aria-hidden="true" style="position: absolute; width: 0; height: 0; overflow: hidden;" version="1.1" xmlns="http://www.w3.org/2000/svg" xmlns:xlink="http://www.w3.org/1999/xlink">
<defs>
<symbol id="icon-hand-o-down" viewBox="0 0 24 28">
<path d="M22 15c0-3.109-2-5.766-2-8.5v-0.5h-10v0.5c0 1.656-1.406 2.766-2.547 3.766-0.719 0.641-1.437 1.234-2.266 1.75-0.344 0.219-0.703 0.406-1.062 0.594s-2.125 0.969-2.125 1.391c0 1.328 0.5 2.5 2 2.5 2 0 3.016-1.5 4-1.5v9c0 1.047 0.938 2 2 2 1.078 0 2-0.922 2-2v-5.172c0.406 0.313 1.094 0.547 1.609 0.547 0.734 0 1.359-0.297 1.859-0.828 0.328 0.187 0.703 0.281 1.078 0.281 0.719 0 1.609-0.359 1.969-1.016 0.281 0.047 0.578 0.063 0.875 0.063 1.844 0 2.609-1.141 2.609-2.875zM20 3c0-0.547-0.453-1-1-1s-1 0.453-1 1 0.453 1 1 1 1-0.453 1-1zM24 14.938c0 2.875-1.625 4.969-4.609 4.953l-0.078-0.016c-0.781 0.625-1.781 0.953-2.781 0.953-0.219 0-0.453-0.016-0.672-0.047-0.531 0.297-1.25 0.516-1.859 0.578v2.641c0 2.188-1.828 4-4.016 4-2.156 0-3.984-1.844-3.984-4v-5.844c-0.609 0.25-1.344 0.344-2 0.344-2.625 0-4-2.016-4-4.5 0-2.094 2.672-2.766 4.125-3.672 0.734-0.469 1.375-1 2.016-1.563 0.516-0.453 1.859-1.516 1.859-2.266v-4.5c0-1.109 0.891-2 2-2h10c1.109 0 2 0.891 2 2v4.5c0 0.984 0.578 2.531 0.922 3.484 0.578 1.594 1.078 3.234 1.078 4.953z"></path>
</symbol>
<symbol id="icon-activity" viewBox="0 0 24 24">
<path d="M22 11h-4c-0.439 0-0.812 0.283-0.949 0.684l-2.051 6.154-5.051-15.154c-0.175-0.524-0.741-0.807-1.265-0.633-0.31 0.103-0.535 0.343-0.633 0.633l-2.772 8.316h-3.279c-0.552 0-1 0.448-1 1s0.448 1 1 1h4c0.423-0.003 0.81-0.267 0.949-0.684l2.051-6.154 5.051 15.154c0.098 0.29 0.323 0.529 0.632 0.632 0.524 0.175 1.090-0.109 1.265-0.632l2.773-8.316h3.279c0.552 0 1-0.448 1-1s-0.448-1-1-1z"></path>
</symbol>
<symbol id="icon-arrow-up-right" viewBox="0 0 24 24">
<path d="M7 8h7.586l-8.293 8.293c-0.391 0.391-0.391 1.024 0 1.414s1.024 0.391 1.414 0l8.293-8.293v7.586c0 0.552 0.448 1 1 1s1-0.448 1-1v-10c0-0.136-0.027-0.265-0.076-0.383s-0.121-0.228-0.216-0.323c-0.001-0.001-0.001-0.001-0.002-0.002-0.092-0.092-0.202-0.166-0.323-0.216-0.118-0.049-0.247-0.076-0.383-0.076h-10c-0.552 0-1 0.448-1 1s0.448 1 1 1z"></path>
</symbol>
<symbol id="icon-map-pin" viewBox="0 0 24 24">
<path d="M22 10c0-2.761-1.12-5.263-2.929-7.071s-4.31-2.929-7.071-2.929-5.263 1.12-7.071 2.929-2.929 4.31-2.929 7.071c0 0.569 0.053 1.128 0.15 1.676 0.274 1.548 0.899 3.004 1.682 4.32 2.732 4.591 7.613 7.836 7.613 7.836 0.331 0.217 0.765 0.229 1.109 0 0 0 4.882-3.245 7.613-7.836 0.783-1.316 1.408-2.772 1.682-4.32 0.098-0.548 0.151-1.107 0.151-1.676zM20 10c0 0.444-0.041 0.887-0.119 1.328-0.221 1.25-0.737 2.478-1.432 3.646-1.912 3.214-5.036 5.747-6.369 6.74-1.398-0.916-4.588-3.477-6.53-6.74-0.695-1.168-1.211-2.396-1.432-3.646-0.077-0.441-0.118-0.884-0.118-1.328 0-2.209 0.894-4.208 2.343-5.657s3.448-2.343 5.657-2.343 4.208 0.894 5.657 2.343 2.343 3.448 2.343 5.657zM16 10c0-1.104-0.449-2.106-1.172-2.828s-1.724-1.172-2.828-1.172-2.106 0.449-2.828 1.172-1.172 1.724-1.172 2.828 0.449 2.106 1.172 2.828 1.724 1.172 2.828 1.172 2.106-0.449 2.828-1.172 1.172-1.724 1.172-2.828zM14 10c0 0.553-0.223 1.051-0.586 1.414s-0.861 0.586-1.414 0.586-1.051-0.223-1.414-0.586-0.586-0.861-0.586-1.414 0.223-1.051 0.586-1.414 0.861-0.586 1.414-0.586 1.051 0.223 1.414 0.586 0.586 0.861 0.586 1.414z"></path>
</symbol>
</defs>
</svg>
